<?xml version="1.0" encoding="UTF-8" standalone="no"?>
<!-- Created with Inkscape (http://www.inkscape.org/) -->

<svg
   width="132.29167mm"
   height="132.29167mm"
   viewBox="0 0 132.29167 132.29167"
   version="1.1"
   id="svg5"
   inkscape:version="1.1.2 (0a00cf5339, 2022-02-04)"
   sodipodi:docname="ob-logo.svg"
   inkscape:export-filename="/home/omar/org/ob-logo.png"
   inkscape:export-xdpi="96"
   inkscape:export-ydpi="96"
   xmlns:inkscape="http://www.inkscape.org/namespaces/inkscape"
   xmlns:sodipodi="http://sodipodi.sourceforge.net/DTD/sodipodi-0.dtd"
   xmlns="http://www.w3.org/2000/svg"
   xmlns:svg="http://www.w3.org/2000/svg">
  <sodipodi:namedview
     id="namedview7"
     pagecolor="#ffffff"
     bordercolor="#666666"
     borderopacity="1.0"
     inkscape:pageshadow="2"
     inkscape:pageopacity="0.0"
     inkscape:pagecheckerboard="0"
     inkscape:document-units="mm"
     showgrid="false"
     inkscape:snap-bbox="true"
     inkscape:snap-bbox-midpoints="true"
     inkscape:snap-bbox-edge-midpoints="true"
     inkscape:lockguides="false"
     showguides="true"
     inkscape:guide-bbox="true"
     inkscape:snap-global="true"
     inkscape:zoom="1.2953002"
     inkscape:cx="275.22577"
     inkscape:cy="247.43298"
     inkscape:window-width="1874"
     inkscape:window-height="1006"
     inkscape:window-x="20"
     inkscape:window-y="48"
     inkscape:window-maximized="1"
     inkscape:current-layer="layer1">
    <inkscape:grid
       type="xygrid"
       id="grid23775"
       originx="0"
       originy="0" />
    <sodipodi:guide
       position="66.145829,111.12501"
       orientation="1,0"
       id="guide23879" />
  </sodipodi:namedview>
  <defs
     id="defs2" />
  <g
     inkscape:label="Layer 1"
     inkscape:groupmode="layer"
     id="layer1">
    <rect
       id="rect12097"
       width="132.29167"
       height="132.29167"
       x="0"
       y="0"
       style="fill:#2e3440;fill-opacity:0;stroke-width:0.264583"
       ry="0"
       inkscape:export-filename="/home/omar/org/ob-logo.png"
       inkscape:export-xdpi="96"
       inkscape:export-ydpi="96" />
    <text
       xml:space="preserve"
       style="font-style:normal;font-weight:normal;font-size:15.0315px;line-height:1.25;font-family:sans-serif;fill:#eceff4;fill-opacity:1;stroke:none;stroke-width:0.375788"
       x="35.49649"
       y="94.170517"
       id="text4461"><tspan
         sodipodi:role="line"
         id="tspan4459"
         style="font-style:normal;font-variant:normal;font-weight:normal;font-stretch:normal;font-size:84.6667px;font-family:FreeSerif;-inkscape-font-specification:'FreeSerif, Normal';font-variant-ligatures:normal;font-variant-caps:normal;font-variant-numeric:normal;font-variant-east-asian:normal;fill:#eceff4;fill-opacity:1;stroke-width:0.375788"
         x="35.49649"
         y="94.170517">O</tspan></text>
    <path
       style="fill:#eceff4;fill-opacity:1;stroke:none;stroke-width:0.0556563;stroke-opacity:1"
       d="M 65.791115,95.005338 C 65.502358,94.858187 65.317895,94.60207 65.15253,94.118662 l -0.123771,-0.361771 c -0.0098,-18.505732 -0.01922,-37.011478 -0.02876,-55.517216 0.816526,0 1.63305,0 2.44956,0 0.0098,10.619026 0.0188,21.238054 0.02807,31.857086 l 0.667886,-0.630324 c 1.656653,-1.563482 3.417037,-2.806138 5.287343,-3.732318 1.955709,-0.968468 3.45835,-1.347815 5.34301,-1.348845 0.723332,-3.92e-4 1.102545,0.02745 1.610175,0.118284 1.937972,0.346706 4.057826,1.454353 5.009417,2.617491 1.099403,1.343788 1.607805,3.122665 1.607805,5.625587 0,2.39286 -0.545759,4.623191 -1.689659,6.905149 -1.71604,3.423289 -5.016055,6.821726 -9.598827,9.885129 -1.419355,0.948771 -7.796963,4.871053 -8.598906,5.288366 -0.598298,0.311378 -0.968433,0.361686 -1.324773,0.180085 z M 78.896609,73.33101 c -1.208494,-3.590298 -3.524109,-3.842187 -5.741716,-3.290101 -2.268857,0.584825 -4.516424,3.17512 -5.677249,5.572007 l -0.0146,7.559009 c -0.01123,6.069102 -6.74e-4,7.550819 0.05572,7.517519 C 72.405281,86.781992 80.801732,79.32263 78.896626,73.33101 Z"
       id="path15649"
       sodipodi:nodetypes="ssccccssscssssssscccscc" />
  </g>
</svg>
