<svg xmlns="http://www.w3.org/2000/svg" viewBox="0 0 187.06 64.51"><defs><style>.cls-1{fill:#87c9d9;}.cls-2{fill:#fff;}</style></defs><g id="Layer_2" data-name="Layer 2"><g id="Layer_1-2" data-name="Layer 1"><path class="cls-1" d="M151.5,17.21v35.6H137.84A7.9,7.9,0,0,1,136.75,54h15.89V17.21Z"/><path class="cls-2" d="M11,6.19c-.53,0-1.14,0-1.84.11a10.67,10.67,0,0,0-2.06.44,6.56,6.56,0,0,0-1.86,1A3.92,3.92,0,0,0,4,9.29V7H0V29.18H4V16.87A6.44,6.44,0,0,1,4.63,14a6.52,6.52,0,0,1,1.59-2.1,6.93,6.93,0,0,1,2.31-1.31,8.41,8.41,0,0,1,2.68-.44h2.12l0-4Z"/><path class="cls-2" d="M25.83,20a4.91,4.91,0,0,1,.57,0q1.11,0,2.46.09t2.37.09a15.77,15.77,0,0,0,4.28-.55,6.41,6.41,0,0,0,3.38-2.42,6.08,6.08,0,0,0,1.38-3.81,6.24,6.24,0,0,0-1-3.5,7.55,7.55,0,0,0-2.57-2.43,9.38,9.38,0,0,0-4.56-1.11,12.55,12.55,0,0,0-4.3.71,10.2,10.2,0,0,0-3.37,2A9.82,9.82,0,0,0,22.19,12a10.56,10.56,0,0,0-1,3.9c-.5.06-1,.1-1.46.13a6.44,6.44,0,0,0-1.46.27v4a4.25,4.25,0,0,1,1.44-.29c.48,0,1,0,1.44-.11v.22a10.42,10.42,0,0,0,.9,4,9,9,0,0,0,2.17,3A9.5,9.5,0,0,0,27.44,29a13.21,13.21,0,0,0,8.75-.22,18.24,18.24,0,0,0,3.63-2v-4.2c-.62.41-1.24.79-1.86,1.15a17,17,0,0,1-1.92.93,12.84,12.84,0,0,1-2.13.62,12.57,12.57,0,0,1-2.46.22,6.93,6.93,0,0,1-4.36-1.35,4.69,4.69,0,0,1-1.75-4V20A3.46,3.46,0,0,1,25.83,20Zm.28-6.6a5.79,5.79,0,0,1,1.64-1.8A7.23,7.23,0,0,1,30,10.49a9.56,9.56,0,0,1,2.64-.36,5.51,5.51,0,0,1,2.7.67,2.36,2.36,0,0,1,1.2,2.26,2.4,2.4,0,0,1-.42,1.46,3,3,0,0,1-1.11.91,5,5,0,0,1-1.57.44,15.32,15.32,0,0,1-1.78.11l-2.1,0c-.72,0-1.34-.05-1.84-.11l-2.39.09A6.16,6.16,0,0,1,26.11,13.35Z"/><path class="cls-2" d="M60,17.44a15.78,15.78,0,0,0-3.41-1.06c-1.23-.24-2.37-.49-3.41-.78a9.81,9.81,0,0,1-2.64-1.08,2.15,2.15,0,0,1-1.06-1.95,2.72,2.72,0,0,1,1.44-2.08,6.07,6.07,0,0,1,3.21-.8,7.21,7.21,0,0,1,2,.27,5.78,5.78,0,0,1,1.71.77A3.77,3.77,0,0,1,59,12a3.4,3.4,0,0,1,.44,1.75,3.31,3.31,0,0,1,0,.44c0,.15,0,.29-.06.44H62.9V13.9a6.93,6.93,0,0,0-2.83-5.78,9.16,9.16,0,0,0-2.9-1.44,11.23,11.23,0,0,0-3.3-.49,10.59,10.59,0,0,0-3,.42,8.18,8.18,0,0,0-2.55,1.24,6,6,0,0,0-1.77,2.08,6.2,6.2,0,0,0-.67,3,5.33,5.33,0,0,0,1,3.48,7.46,7.46,0,0,0,2.6,2,14.23,14.23,0,0,0,3.36,1.09c1.21.23,2.33.48,3.37.73a9.82,9.82,0,0,1,2.59,1,2,2,0,0,1,1,1.8,2.22,2.22,0,0,1-.42,1.33,3.63,3.63,0,0,1-1.11,1,5.85,5.85,0,0,1-1.57.62,7.52,7.52,0,0,1-1.86.22,9.27,9.27,0,0,1-2.17-.26A7.09,7.09,0,0,1,50.85,25a4.54,4.54,0,0,1-1.37-1.28A3.15,3.15,0,0,1,49,22v-.35a1.47,1.47,0,0,1,0-.36H45.27a4.8,4.8,0,0,1,0,.58c0,.15,0,.28,0,.4a6.17,6.17,0,0,0,.84,3.25,7.37,7.37,0,0,0,2.22,2.33,10.6,10.6,0,0,0,3.1,1.42,13,13,0,0,0,3.5.48,12.61,12.61,0,0,0,3.23-.42A8.71,8.71,0,0,0,60.93,28a6.83,6.83,0,0,0,2-2.17,6,6,0,0,0,.76-3.08,5,5,0,0,0-1.07-3.37A7.51,7.51,0,0,0,60,17.44Z"/><path class="cls-2" d="M76.59,20a5.22,5.22,0,0,1,.58,0q1.11,0,2.46.09T82,20.1a15.7,15.7,0,0,0,4.27-.55,6.39,6.39,0,0,0,3.39-2.42A6.07,6.07,0,0,0,91,13.32a6.24,6.24,0,0,0-1-3.5,7.43,7.43,0,0,0-2.56-2.43,9.39,9.39,0,0,0-4.57-1.11A12.49,12.49,0,0,0,78.59,7a10.1,10.1,0,0,0-3.37,2A9.67,9.67,0,0,0,73,12a10.37,10.37,0,0,0-1,3.9c-.51.06-1,.1-1.47.13a6.55,6.55,0,0,0-1.46.27v4a4.25,4.25,0,0,1,1.44-.29c.49,0,1,0,1.44-.11v.22a10.42,10.42,0,0,0,.91,4,8.85,8.85,0,0,0,2.17,3A9.4,9.4,0,0,0,78.21,29a12.26,12.26,0,0,0,4,.64A12.4,12.4,0,0,0,87,28.81a18.24,18.24,0,0,0,3.63-2v-4.2c-.62.41-1.24.79-1.86,1.15a16.33,16.33,0,0,1-1.93.93,12.45,12.45,0,0,1-2.12.62,12.72,12.72,0,0,1-2.46.22,6.91,6.91,0,0,1-4.36-1.35,4.7,4.7,0,0,1-1.76-4V20A3.65,3.65,0,0,1,76.59,20Zm.29-6.6a5.79,5.79,0,0,1,1.64-1.8,7.12,7.12,0,0,1,2.26-1.06,9.54,9.54,0,0,1,2.63-.36,5.53,5.53,0,0,1,2.71.67,2.37,2.37,0,0,1,1.19,2.26,2.4,2.4,0,0,1-.42,1.46,2.93,2.93,0,0,1-1.11.91,4.89,4.89,0,0,1-1.57.44,15,15,0,0,1-1.77.11l-2.1,0c-.73,0-1.34-.05-1.84-.11l-2.4.09A6,6,0,0,1,76.88,13.35Z"/><path class="cls-2" d="M115.75,16v-.22a11.41,11.41,0,0,0-.82-4.36,7.92,7.92,0,0,0-5.11-4.63,12.31,12.31,0,0,0-3.68-.53,11.37,11.37,0,0,0-3.28.48A9.5,9.5,0,0,0,100,8.16a7.77,7.77,0,0,0-2.08,2.42A8.09,8.09,0,0,0,97,14h4.08a3.2,3.2,0,0,1,.53-1.75A4,4,0,0,1,102.82,11a5.26,5.26,0,0,1,1.68-.71,8.11,8.11,0,0,1,1.91-.22,6.91,6.91,0,0,1,2,.29,5.34,5.34,0,0,1,1.7.86,4.3,4.3,0,0,1,1.69,3.54v.58a2.57,2.57,0,0,1-.09.62v.18a24.51,24.51,0,0,0-7.05-1.11,13,13,0,0,0-3.34.4,7.53,7.53,0,0,0-2.66,1.26A6,6,0,0,0,96.86,19a7.65,7.65,0,0,0-.64,3.28A6.75,6.75,0,0,0,97,25.48a7.12,7.12,0,0,0,2,2.33,8.9,8.9,0,0,0,2.79,1.39,10.68,10.68,0,0,0,6.83-.19,7,7,0,0,0,3.1-2.23v2.31h4.07v-.82c0-.51,0-1.19,0-2s0-1.8,0-2.88v-3.3l2.74-.45V15.45c-.5.12-1,.22-1.44.31S116.2,15.92,115.75,16Zm-4,5.73a2.67,2.67,0,0,1-.55,1.3,5.86,5.86,0,0,1-1.38,1.33,8.19,8.19,0,0,1-2,1.05,6.56,6.56,0,0,1-2.34.43,7.16,7.16,0,0,1-2-.27,6,6,0,0,1-1.64-.74,3.93,3.93,0,0,1-1.13-1.09,2.44,2.44,0,0,1-.42-1.38,2.41,2.41,0,0,1,.49-1.56,3.83,3.83,0,0,1,1.22-1,5.37,5.37,0,0,1,1.59-.56,9.57,9.57,0,0,1,1.62-.15,11.72,11.72,0,0,1,2,.18c.7.12,1.35.24,2,.37l1.6.38a4.5,4.5,0,0,0,1,.18Z"/><path class="cls-2" d="M138.12,6.19h-2.26c-.53,0-1.14,0-1.83.11a10.36,10.36,0,0,0-2.06.44,6.76,6.76,0,0,0-1.87,1,3.92,3.92,0,0,0-1.28,1.59V7h-4V29.18h4V16.87a6.31,6.31,0,0,1,2.2-4.94,6.79,6.79,0,0,1,2.3-1.31,8.46,8.46,0,0,1,2.68-.44h2.13Z"/><rect class="cls-1" x="98.19" y="52.81" width="9.9" height="1.14"/><rect class="cls-1" x="93.02" y="52.81" width="4.03" height="1.14"/><rect class="cls-1" x="109.23" y="52.81" width="3.99" height="1.14"/><rect class="cls-1" x="72.67" y="52.81" width="9.9" height="1.14"/><path class="cls-1" d="M46.23,52.81A6,6,0,0,0,46.34,54H59.25a6,6,0,0,0,.11-1.14Z"/><path class="cls-1" d="M65.72,52.81q0,.59-.06,1.14h.7V52.81Z"/><path class="cls-1" d="M39.87,52.81H28.56V54H39.93A10.6,10.6,0,0,1,39.87,52.81Z"/><rect class="cls-1" x="88.84" y="52.81" width="3.04" height="1.14"/><rect class="cls-1" x="114.36" y="52.81" width="0.95" height="1.14"/><path class="cls-1" d="M163.14,21.26a11.83,11.83,0,0,1-1.71,3.17,11.49,11.49,0,0,1-2.54,2.48,11.74,11.74,0,0,1-3.22,1.62,11.55,11.55,0,0,1-3.61.57,11.2,11.2,0,0,1-4.45-.9,12.46,12.46,0,0,1-3.7-2.46,11.47,11.47,0,0,1-2.52-3.68,11.33,11.33,0,0,1,0-9,12.17,12.17,0,0,1,6.24-6.31,11,11,0,0,1,4.57-1,11.18,11.18,0,0,1,3.65.6A11.4,11.4,0,0,1,159,8.06a12.7,12.7,0,0,1,2.52,2.55,13.37,13.37,0,0,1,1.78,3.26h-4.43a7.37,7.37,0,0,0-2.77-2.93,7.56,7.56,0,0,0-3.92-1.06,7.29,7.29,0,0,0-2.91.6,8,8,0,0,0-2.45,1.61,7.89,7.89,0,0,0-1.71,2.44,7.2,7.2,0,0,0-.64,3,7.35,7.35,0,0,0,.57,2.84,7.63,7.63,0,0,0,1.62,2.41,7.84,7.84,0,0,0,2.42,1.66,7,7,0,0,0,3,.62,7.58,7.58,0,0,0,3.83-1,7.47,7.47,0,0,0,2.86-2.77Z"/><path class="cls-2" d="M170.85,9.57a3.77,3.77,0,0,1,1.17-2,6.71,6.71,0,0,1,1.86-1.2,8.27,8.27,0,0,1,2-.57,9.55,9.55,0,0,1,1.51-.16,13.76,13.76,0,0,1,4.36.62,6.74,6.74,0,0,1,3,2,8.39,8.39,0,0,1,1.75,3.48,20.06,20.06,0,0,1,.58,5.2V28.66h-4V16.92c0-.23.05-.47.07-.71s0-.47,0-.7a6,6,0,0,0-.4-2.13,6,6,0,0,0-1.13-1.91,5.37,5.37,0,0,0-1.81-1.35,5.64,5.64,0,0,0-2.42-.51,5.16,5.16,0,0,0-2.21.54,7.6,7.6,0,0,0-2.11,1.44,7.74,7.74,0,0,0-1.57,2.12,5.77,5.77,0,0,0-.62,2.64V28.66h-4V0h4Z"/><path class="cls-1" d="M39.68,56.63A11.89,11.89,0,0,1,38,59.79a11.81,11.81,0,0,1-5.76,4.1,11.61,11.61,0,0,1-3.61.58,11.26,11.26,0,0,1-4.46-.91,12.28,12.28,0,0,1-3.69-2.46,11.34,11.34,0,0,1-2.53-3.68,11.33,11.33,0,0,1,0-9,12.23,12.23,0,0,1,6.25-6.31,10.9,10.9,0,0,1,4.56-1,11.13,11.13,0,0,1,3.65.6,11.26,11.26,0,0,1,3.17,1.66A12.48,12.48,0,0,1,38.09,46a13.34,13.34,0,0,1,1.77,3.26H35.43a7.24,7.24,0,0,0-2.77-2.93,7.54,7.54,0,0,0-3.92-1.06,7.24,7.24,0,0,0-2.9.6,8.19,8.19,0,0,0-2.46,1.61,8,8,0,0,0-1.71,2.44,7.32,7.32,0,0,0-.06,5.85,7.44,7.44,0,0,0,1.61,2.41,8,8,0,0,0,2.42,1.66,7,7,0,0,0,3,.62,7.61,7.61,0,0,0,3.83-1,7.49,7.49,0,0,0,2.85-2.76Z"/><path class="cls-2" d="M63.65,57.29a11.15,11.15,0,0,0,.93-4.52,11.27,11.27,0,0,0-.93-4.56,12,12,0,0,0-2.53-3.72A11.82,11.82,0,0,0,57.38,42a11.67,11.67,0,0,0-9.13,0,12.14,12.14,0,0,0-3.76,2.53,11.74,11.74,0,0,0-2.55,3.72A11.27,11.27,0,0,0,41,52.77a11.15,11.15,0,0,0,.93,4.52A11.74,11.74,0,0,0,44.49,61a12.32,12.32,0,0,0,3.76,2.53,11.67,11.67,0,0,0,9.13,0,12,12,0,0,0,6.27-6.25ZM59.9,55.74a7.73,7.73,0,0,1-12.53,2.41,7.92,7.92,0,0,1-1.66-2.41,7.42,7.42,0,0,1,0-5.94,7.84,7.84,0,0,1,10.12-4,7.83,7.83,0,0,1,2.43,1.62,7.57,7.57,0,0,1,1.64,8.33Z"/><path class="cls-2" d="M87.7,64V52.28a20.54,20.54,0,0,0-.57-5.2,8.64,8.64,0,0,0-1.75-3.48,7,7,0,0,0-3-2A13.76,13.76,0,0,0,78,41a9.67,9.67,0,0,0-1.51.16,8.4,8.4,0,0,0-2,.57A6.71,6.71,0,0,0,72.66,43a3.88,3.88,0,0,0-1.17,2l0-3.1h-4V64h4V51.71a6.47,6.47,0,0,1,.6-2.84,7,7,0,0,1,1.53-2.1,6.33,6.33,0,0,1,2.13-1.31A6.91,6.91,0,0,1,78.18,45a6.76,6.76,0,0,1,2.79.73,4.62,4.62,0,0,1,1.68,1.57,6,6,0,0,1,.84,2.22,14.51,14.51,0,0,1,.22,2.61V64Z"/><path class="cls-2" d="M113.22,64V52.28a20.06,20.06,0,0,0-.58-5.2,8.51,8.51,0,0,0-1.75-3.48,7,7,0,0,0-3-2,13.8,13.8,0,0,0-4.36-.62,9.55,9.55,0,0,0-1.51.16,8.27,8.27,0,0,0-2,.57A6.43,6.43,0,0,0,98.18,43a3.9,3.9,0,0,0-1.18,2l0-3.1H93V64h4V51.71a6.47,6.47,0,0,1,.6-2.84,6.79,6.79,0,0,1,1.52-2.1,6.33,6.33,0,0,1,2.13-1.31,7,7,0,0,1,2.39-.44,6.76,6.76,0,0,1,2.79.73,4.73,4.73,0,0,1,1.69,1.57,6.17,6.17,0,0,1,.84,2.22,14.51,14.51,0,0,1,.22,2.61V64Z"/><path class="cls-2" d="M120.24,59.06a8.85,8.85,0,0,0,2.17,3,9.4,9.4,0,0,0,3.19,1.84,12,12,0,0,0,4,.64,12.4,12.4,0,0,0,4.74-.86,18.75,18.75,0,0,0,3.63-2V57.47c-.62.41-1.24.79-1.86,1.15a16.33,16.33,0,0,1-1.93.93,12.45,12.45,0,0,1-2.12.62,12.72,12.72,0,0,1-2.46.22A6.89,6.89,0,0,1,125.25,59a4.7,4.7,0,0,1-1.76-4v-.22a3.65,3.65,0,0,1,.49-.06,5.22,5.22,0,0,1,.58,0q1.11,0,2.46.09t2.37.09a15.7,15.7,0,0,0,4.27-.55A6.43,6.43,0,0,0,137.05,52a6.07,6.07,0,0,0,1.37-3.81,6.24,6.24,0,0,0-1-3.5,7.43,7.43,0,0,0-2.56-2.43,9.39,9.39,0,0,0-4.57-1.11,12.49,12.49,0,0,0-4.29.71,10.1,10.1,0,0,0-3.37,2,9.67,9.67,0,0,0-2.26,3.06,10.57,10.57,0,0,0-1,3.9c-.5.06-1,.1-1.46.13a6.55,6.55,0,0,0-1.46.27v4a4.25,4.25,0,0,1,1.44-.29c.49,0,1-.05,1.44-.11V55A10.42,10.42,0,0,0,120.24,59.06Zm4-10.87a5.79,5.79,0,0,1,1.64-1.8,7.35,7.35,0,0,1,2.26-1.06A9.54,9.54,0,0,1,130.8,45a5.42,5.42,0,0,1,2.71.67,2.35,2.35,0,0,1,1.19,2.26,2.4,2.4,0,0,1-.42,1.46,2.93,2.93,0,0,1-1.11.91,4.89,4.89,0,0,1-1.57.44,13.14,13.14,0,0,1-1.77.11l-2.1,0a17.66,17.66,0,0,1-1.84-.11l-2.4.09A6,6,0,0,1,124.27,48.19Z"/><path class="cls-1" d="M163.32,56.63a11.64,11.64,0,0,1-1.71,3.16,11.49,11.49,0,0,1-2.54,2.48,11.82,11.82,0,0,1-3.21,1.62,11.67,11.67,0,0,1-3.62.58,11.21,11.21,0,0,1-4.45-.91,12.46,12.46,0,0,1-3.7-2.46,11.47,11.47,0,0,1-2.52-3.68,11.33,11.33,0,0,1,0-9,12.17,12.17,0,0,1,6.24-6.31,11,11,0,0,1,4.57-1,11.13,11.13,0,0,1,3.65.6,11.4,11.4,0,0,1,3.17,1.66A12.44,12.44,0,0,1,161.72,46a13.37,13.37,0,0,1,1.78,3.26h-4.43a7.31,7.31,0,0,0-2.77-2.93,7.56,7.56,0,0,0-3.92-1.06,7.24,7.24,0,0,0-2.9.6A8.19,8.19,0,0,0,147,47.45a8,8,0,0,0-1.71,2.44,7.2,7.2,0,0,0-.64,3,7.35,7.35,0,0,0,.57,2.84,7.63,7.63,0,0,0,1.62,2.41,8,8,0,0,0,2.42,1.66,7,7,0,0,0,3,.62,7.65,7.65,0,0,0,3.84-1,7.56,7.56,0,0,0,2.85-2.76Z"/><path class="cls-2" d="M175.19,64.11a8.17,8.17,0,0,1-3.32-.66,9.42,9.42,0,0,1-2.64-1.75,7.92,7.92,0,0,1-1.75-2.53,7.52,7.52,0,0,1-.62-3V45.55h-3.94V41.83h4v-7h3.85v7h4.48v3.72h-4.48V56.89a3.52,3.52,0,0,0,1.48,2.35,4.8,4.8,0,0,0,2.95.93Z"/><path class="cls-1" d="M32.92,52.82a4.5,4.5,0,1,1-4.49-4.5,4.49,4.49,0,0,1,4.49,4.5"/><path class="cls-1" d="M156.56,52.82a4.5,4.5,0,1,1-4.49-4.5,4.49,4.49,0,0,1,4.49,4.5"/><path class="cls-1" d="M156.38,17.45A4.5,4.5,0,1,1,151.89,13a4.49,4.49,0,0,1,4.49,4.49"/></g></g></svg>